<?xml version="1.0" encoding="UTF-8" standalone="no"?><svg xmlns="http://www.w3.org/2000/svg" xmlns:xlink="http://www.w3.org/1999/xlink" contentScriptType="application/ecmascript" contentStyleType="text/css" height="311px" preserveAspectRatio="none" style="width:827px;height:311px;" version="1.1" viewBox="0 0 827 311" width="827px" zoomAndPan="magnify"><defs><filter height="300%" id="f9qecocuoypde" width="300%" x="-1" y="-1"><feGaussianBlur result="blurOut" stdDeviation="2.0"/><feColorMatrix in="blurOut" result="blurOut2" type="matrix" values="0 0 0 0 0 0 0 0 0 0 0 0 0 0 0 0 0 0 .4 0"/><feOffset dx="4.0" dy="4.0" in="blurOut2" result="blurOut3"/><feBlend in="SourceGraphic" in2="blurOut3" mode="normal"/></filter></defs><g><!--MD5=[d61e33bdb77ef55d474c56c665b73099]
entity Arquitecto--><ellipse cx="465" cy="14" fill="#FEFECE" filter="url(#f9qecocuoypde)" rx="8" ry="8" style="stroke: #A80036; stroke-width: 1.5;"/><path d="M465,22 L465,49 M452,30 L478,30 M465,49 L452,64 M465,49 L478,64 " fill="none" filter="url(#f9qecocuoypde)" style="stroke: #A80036; stroke-width: 1.5;"/><text fill="#000000" font-family="sans-serif" font-size="14" lengthAdjust="spacingAndGlyphs" textLength="77" x="426.5" y="82.4951">Arquitecto</text><!--MD5=[44190ce1e4e0c401e9bd4057cd302bcd]
entity Docker_Hub--><path d="M338.0077,154.9295 C341.4498,148.3374 346.3462,147.423 351.1617,153.504 C355.4544,146.8831 361.1587,147.491 364.9409,154.0383 C367.5572,148.3176 373.0396,147.3871 376.752,152.8841 C380.9576,146.1961 385.307,145.6086 390.0034,152.4018 C392.8967,147.3071 397.6485,147.218 401.19,151.6399 C406.2651,146.8852 411.4105,146.9028 414.6805,153.7406 C418.2315,147.706 422.2981,148.3512 425.918,153.6723 C430.9367,146.9521 436.2275,146.4754 440.4737,154.438 C448.3672,157.076 448.8854,163.6824 443.3693,168.9889 C450.6968,176.1491 449.2635,182.4009 439.3767,185.3638 C435.1517,192.0131 431.0881,190.9882 426.603,185.6408 C422.9793,191.6192 417.7772,193.0187 413.6569,186.1408 C411.7638,193.2109 406.2727,195.0394 401.2739,189.0961 C397.7555,195.5675 393.2642,195.9304 388.8801,189.9583 C384.3491,194.8357 378.57,194.2055 376.1949,187.5807 C372.6669,193.8149 367.568,193.7228 364.3106,187.3261 C360.0257,192.8661 354.3513,191.0656 352.2746,185.03 C347.8206,191.7605 341.7794,190.41 338.3138,183.9815 C330.0434,179.8589 330.5778,174.6858 336.2039,168.6508 C330.9128,163.2095 330.1193,158.6382 338.0077,154.9295 " fill="#FEFECE" filter="url(#f9qecocuoypde)" style="stroke: #000000; stroke-width: 1.5;"/><text fill="#000000" font-family="sans-serif" font-size="14" lengthAdjust="spacingAndGlyphs" textLength="87" x="344.5" y="173.4951">Docker_Hub</text><!--MD5=[272b84fe8b27288997e9e097cdf190da]
entity Microservices_ListCourses--><rect fill="#FEFECE" filter="url(#f9qecocuoypde)" height="46.2969" style="stroke: #A80036; stroke-width: 1.5;" width="226" x="7" y="251.5"/><rect fill="#FEFECE" height="10" style="stroke: #A80036; stroke-width: 1.5;" width="15" x="213" y="256.5"/><rect fill="#FEFECE" height="2" style="stroke: #A80036; stroke-width: 1.5;" width="4" x="211" y="258.5"/><rect fill="#FEFECE" height="2" style="stroke: #A80036; stroke-width: 1.5;" width="4" x="211" y="262.5"/><text fill="#000000" font-family="sans-serif" font-size="14" lengthAdjust="spacingAndGlyphs" textLength="186" x="22" y="284.4951">Microservices_ListCourses</text><!--MD5=[001203e22abcb89896ce6c6505929b9e]
entity Microservices_Pagos_Cursos--><rect fill="#FEFECE" filter="url(#f9qecocuoypde)" height="46.2969" style="stroke: #A80036; stroke-width: 1.5;" width="240" x="268" y="251.5"/><rect fill="#FEFECE" height="10" style="stroke: #A80036; stroke-width: 1.5;" width="15" x="488" y="256.5"/><rect fill="#FEFECE" height="2" style="stroke: #A80036; stroke-width: 1.5;" width="4" x="486" y="258.5"/><rect fill="#FEFECE" height="2" style="stroke: #A80036; stroke-width: 1.5;" width="4" x="486" y="262.5"/><text fill="#000000" font-family="sans-serif" font-size="14" lengthAdjust="spacingAndGlyphs" textLength="200" x="283" y="284.4951">Microservices_Pagos_Cursos</text><!--MD5=[3d4c704368479da11ac5f61ea45d1961]
entity Microservices_RegisterMatricula--><rect fill="#FEFECE" filter="url(#f9qecocuoypde)" height="46.2969" style="stroke: #A80036; stroke-width: 1.5;" width="270" x="543" y="251.5"/><rect fill="#FEFECE" height="10" style="stroke: #A80036; stroke-width: 1.5;" width="15" x="793" y="256.5"/><rect fill="#FEFECE" height="2" style="stroke: #A80036; stroke-width: 1.5;" width="4" x="791" y="258.5"/><rect fill="#FEFECE" height="2" style="stroke: #A80036; stroke-width: 1.5;" width="4" x="791" y="262.5"/><text fill="#000000" font-family="sans-serif" font-size="14" lengthAdjust="spacingAndGlyphs" textLength="230" x="558" y="284.4951">Microservices_RegisterMatricula</text><!--MD5=[3898a8f7fd4907f6f05297f74fb469ca]
entity App_Client--><rect fill="#FEFECE" filter="url(#f9qecocuoypde)" height="46.2969" style="stroke: #A80036; stroke-width: 1.5;" width="120" x="482" y="145.5"/><rect fill="#FEFECE" height="10" style="stroke: #A80036; stroke-width: 1.5;" width="15" x="582" y="150.5"/><rect fill="#FEFECE" height="2" style="stroke: #A80036; stroke-width: 1.5;" width="4" x="580" y="152.5"/><rect fill="#FEFECE" height="2" style="stroke: #A80036; stroke-width: 1.5;" width="4" x="580" y="156.5"/><text fill="#000000" font-family="sans-serif" font-size="14" lengthAdjust="spacingAndGlyphs" textLength="80" x="497" y="178.4951">App_Client</text><!--MD5=[2f4a1ccd45629424dfa8026583eb540a]
reverse link Docker_Hub to Microservices_ListCourses--><path d="M326.302,193.442 C281.243,210.9281 220.615,234.4555 176.754,251.4761 " fill="none" id="Docker_Hub-backto-Microservices_ListCourses" style="stroke: #A80036; stroke-width: 1.0;"/><polygon fill="#A80036" points="331.164,191.556,321.3265,191.0823,326.5026,193.3646,324.2203,198.5406,331.164,191.556" style="stroke: #A80036; stroke-width: 1.0;"/><!--MD5=[5b2712179e2d5ec6257ed4f03b44a935]
reverse link Docker_Hub to Microservices_Pagos_Cursos--><path d="M388,196.692 C388,213.7616 388,235.4891 388,251.4761 " fill="none" id="Docker_Hub-backto-Microservices_Pagos_Cursos" style="stroke: #A80036; stroke-width: 1.0;"/><polygon fill="#A80036" points="388,191.556,384,200.556,388,196.556,392,200.556,388,191.556" style="stroke: #A80036; stroke-width: 1.0;"/><!--MD5=[684ae3104f9328e084d8022b27794a97]
reverse link Docker_Hub to Microservices_RegisterMatricula--><path d="M451.675,192.335 C500.743,209.9321 568.176,234.1147 616.651,251.4989 " fill="none" id="Docker_Hub-backto-Microservices_RegisterMatricula" style="stroke: #A80036; stroke-width: 1.0;"/><polygon fill="#A80036" points="446.686,190.546,453.808,197.3488,451.3926,192.2335,456.5079,189.8181,446.686,190.546" style="stroke: #A80036; stroke-width: 1.0;"/><!--MD5=[ecb24fe74304cbb13995127490133e68]
link Arquitecto to Docker_Hub--><path d="M439.787,85.784 C428.321,103.876 415.063,124.797 404.832,140.94 " fill="none" id="Arquitecto-to-Docker_Hub" style="stroke: #A80036; stroke-width: 1.0;"/><polygon fill="#A80036" points="402.031,145.361,410.2269,139.8996,404.7071,141.1375,403.4692,135.6177,402.031,145.361" style="stroke: #A80036; stroke-width: 1.0;"/><!--MD5=[f474cfd849629f7c868ffc4effb7466e]
link Arquitecto to App_Client--><path d="M490.213,85.784 C502.757,105.577 517.446,128.755 527.969,145.361 " fill="none" id="Arquitecto-App_Client" style="stroke: #A80036; stroke-width: 1.0;"/><!--MD5=[33f2cd08c0a2865379bd77bc003dc286]
@startuml
actor Arquitecto
cloud Docker_Hub
Docker_Hub <- -[Microservices_ListCourses]
Docker_Hub <- - [Microservices_Pagos_Cursos]
Docker_Hub <- - [Microservices_RegisterMatricula]
Arquitecto - -> Docker_Hub

Arquitecto - - [App_Client]
@enduml

PlantUML version 1.2020.19beta4(Unknown compile time)
(GPL source distribution)
Java Runtime: Java(TM) SE Runtime Environment
JVM: Java HotSpot(TM) 64-Bit Server VM
Default Encoding: UTF-8
Language: en
Country: US
--></g></svg>